<?xml version="1.0" encoding="utf-8"?>
<!-- Generator: Adobe Illustrator 27.5.0, SVG Export Plug-In . SVG Version: 6.00 Build 0)  -->
<svg version="1.1" id="Слой_1" xmlns="http://www.w3.org/2000/svg" xmlns:xlink="http://www.w3.org/1999/xlink" x="0px" y="0px"
	 viewBox="0 0 2383 2685.4" style="enable-background:new 0 0 2383 2685.4;" xml:space="preserve">
<style type="text/css">
	.st0{clip-path:url(#SVGID_00000001661041857283220430000005663541644029953687_);}
	.st1{fill:#575756;}
	.st2{fill-rule:evenodd;clip-rule:evenodd;fill:#93CE03;}
	.st3{fill-rule:evenodd;clip-rule:evenodd;fill:#83C805;}
	.st4{fill-rule:evenodd;clip-rule:evenodd;fill:#ABDB06;}
	.st5{fill-rule:evenodd;clip-rule:evenodd;fill:#A1D606;}
</style>
<g>
	<defs>
		<rect id="SVGID_1_" width="2383" height="2685.4"/>
	</defs>
	<clipPath id="SVGID_00000116205258072854958680000014500062485837426346_">
		<use xlink:href="#SVGID_1_"  style="overflow:visible;"/>
	</clipPath>
	<g id="itp_dop" style="clip-path:url(#SVGID_00000116205258072854958680000014500062485837426346_);">
		<g id="Group_461" transform="translate(-68.425 92.149)">
			<g id="Group_456" transform="translate(98.425 1539.758)">
				<g>
					<path class="st1" d="M-35.6,4.8h85.7v478h-85.7V4.8z"/>
					<path class="st1" d="M477.7,71.9h-141v411h-85.6v-411H110.9V4.8h366.8L477.7,71.9L477.7,71.9z"/>
					<path class="st1" d="M1023.4,154.5c0,90-70.1,149.6-175.7,149.6h-95.6v178.8h-85.7V4.8h181.8
						C953.1,4.8,1023.4,64.5,1023.4,154.5z M934.6,154.5c0-49.6-32.9-82.6-82.6-82.6h-99.9v165.7h99.9
						C901.7,237.6,934.6,204.1,934.6,154.5z"/>
					<path class="st1" d="M1323.7,373h-195.5l-37.9,109.9H1004l177-478h95.6l176.3,478h-91.2L1323.7,373z M1300.8,305.9l-73.9-214.1
						h-1.2l-73.9,214.1H1300.8z"/>
					<path class="st1" d="M1692.5,288.6h-103.7v194.3h-85.7V4.8h189.4c106.1,0,177.6,54.6,177.6,136c0,63.3-36,111.1-95.6,133.4
						l113.1,208.5h-95.6L1692.5,288.6z M1588.9,225.2h108.1c50.8,0,85-31,85-78.2c0-44.6-34.1-75.1-85-75.1h-108.1V225.2z"/>
					<path class="st1" d="M1955.7,4.8h85.7v478h-85.7V4.8z M2358.6,482.9h-101.2l-204.3-248.3L2236.9,4.8h96.2l-178.2,222.8
						L2358.6,482.9z"/>
					<path class="st1" d="M464,731.3c-12,31.1-25.2,67.5-39.6,109.3h85.1c-13.2-37.3-25-73.9-35.5-109.3H464z"/>
					<path class="st1" d="M2289.7,577.9H33.2c-37.9,0-68.7,30.8-68.7,68.7l0,0v330.5c0,37.9,30.8,68.9,68.7,68.9l0,0h2256.5
						c37.9,0,68.9-30.8,68.9-68.9V646.6C2358.4,608.7,2327.6,577.9,2289.7,577.9z M321.4,732.1h-86.2v213.7h-48.7V732.1h-86.2v-41.7
						h221.1L321.4,732.1z M547.9,945.9c-10.8-26.9-19-48.1-24.6-63.7H411.5c-5.6,17.3-12.3,38.7-19.7,63.7h-50.5
						c26.1-83.3,56.9-168.6,92.4-255.6h75.9c31.3,98.5,61.9,183.8,92,255.6H547.9z M801.2,932.8C783.5,945,755.5,951,717.5,951
						c-30.8,0-57.4-3.8-79.5-11.4l10.6-41.7c19.3,6.1,42,9.1,68.1,9.3c21.1,0,36.1-2.4,45.2-7.4c9.1-4.9,13.8-13.7,13.8-26.4
						c0-10.5-3.9-18.5-11.8-24.1c-7.9-5.6-23.4-9.4-46.4-11.4c-29.1-2.9-50.2-9.7-63.3-20.2c-13.1-10.5-19.6-27.3-19.6-50.2
						c0-29.3,9-50.5,27-63.6c17.9-13.1,45.4-19.6,81.9-19.6c28.8,0,54.9,3.8,78.2,11.4l-10.6,41.7c-17.1-6.1-39.6-9.1-67.5-9.1
						c-20.8,0-35.5,2.6-44.3,7.6c-8.8,5-13.2,13.7-13.2,25.8c0,10.3,3.8,17.8,11.2,22.3c7.4,4.7,22.5,8,44.9,10.3
						c30,3.2,51.9,10.8,65.4,22.8c13.5,12,20.3,29.9,20.3,53.9C827.8,900.1,818.8,920.7,801.2,932.8L801.2,932.8z M1104.3,945.9
						h-47.7V832.5H947.4v113.4H899V690.3h48.4v97.6h109.3v-97.6h47.7V945.9z M1239.2,945.9h-48.4V690.3h48.4V945.9z M1346.6,945.9
						c-23.7-39.2-45.4-70.6-65.1-94.2s-33.7-37.3-42-40.7c9.1-6.4,22.8-20.3,41.1-42.2c18.4-21.7,37.9-48,58.7-78.5h58.7
						c-21.2,30-40.7,55.5-58.3,76.5c-17.6,20.9-30.4,34.4-38.1,40.8c8,5.3,21.9,20.3,41.3,44.8c19.4,24.4,40.5,55.5,63.3,93.5
						L1346.6,945.9z M1641.1,732.1h-137.2v59h97.9v41.4h-97.9V904h137.2v41.7h-185.6V690.3h185.6V732.1z M1923.8,945.9h-59
						c-34.9-64.8-72.5-129-112.6-192.6v192.6h-47.2V690.3h63.4c36.9,58.1,72.7,119.7,107.4,184.4V690.3h48L1923.8,945.9z
						 M2200.7,732.1h-86.2v213.7h-48.7V732.1h-86.2v-41.7h221.1L2200.7,732.1z"/>
				</g>
			</g>
			<g id="new_logo_itp" transform="translate(432.008 -75.148)">
				<path id="Path_484" class="st2" d="M1522.4,499.2l-369.6-362.8C978.4-42.4,692.1-45.9,513.3,128.6c-2.6,2.6-5.3,5.2-7.8,7.8
					L136.1,499.2c-178,173.3-181.9,458-8.6,636.1c2.8,2.9,5.7,5.8,8.6,8.6l46.7,45.9c83,81.5,515.3,267.7,554.2,283.5V768.8
					c-0.8-22-14.9-41.3-35.5-48.8l-230.4-90.1c-46.8,39.1-116.4,33-155.5-13.8c-39.1-46.8-33-116.4,13.8-155.5s116.4-33,155.5,13.8
					c13.6,16.3,22.3,36.2,24.9,57.3L734,619c61,24.7,129.1,24.7,190.1,0l224.2-87.5c7.5-60.5,62.7-103.5,123.2-96
					c60.5,7.5,103.5,62.7,96,123.2c-7.5,60.5-62.7,103.5-123.2,96c-21.1-2.6-41-11.3-57.3-24.9l-230.4,90.1
					c-20.6,7.6-34.7,26.9-35.5,48.8v704.5c38.9-15.5,471.3-201.7,554.2-283.5l46.9-45.9c178-173.6,181.6-458.7,8-636.7
					c-2.6-2.7-5.3-5.4-8-8L1522.4,499.2z M829.1,482.5c-73.7,0-133.4-59.8-133.4-133.4s59.8-133.4,133.4-133.4
					c73.7,0,133.4,59.8,133.4,133.4c0,35.4-14.1,69.3-39.1,94.3C898.5,468.4,864.5,482.5,829.1,482.5z"/>
				<path id="Path_485" class="st3" d="M1530.3,507.4l-609.2,838.8v127.1c38.9-15.6,471.3-201.7,554.2-283.5l46.9-45.9
					C1700.2,970.4,1703.8,685.4,1530.3,507.4L1530.3,507.4z"/>
				<path id="Path_486" class="st4" d="M507.1,517.1l50.1-269.1l159.4,29.7c39.5-62.2,122-80.6,184.2-41
					c30.7,19.5,52.1,50.7,59.3,86.4l472.4,87.9l-279.5-274.4C978.4-42.4,692.1-45.9,513.3,128.6c-2.6,2.6-5.3,5.2-7.8,7.8
					L136.1,499.2c-178,173.3-181.9,458-8.6,636.1c2.8,2.9,5.7,5.8,8.6,8.6l46.7,45.9c28.5,28,98,68.2,178.7,109.7l123.6-664.2
					l-13.9-5.4c-46.8,39.1-116.4,33-155.5-13.8s-33-116.4,13.8-155.5s116.4-33,155.5,13.8C495.4,486.7,502.9,501.3,507.1,517.1
					L507.1,517.1z"/>
				<path id="Path_487" class="st5" d="M1072.6,71.1L555.7,245.7l-40.3-119.2C666-18.5,896.4-41.4,1072.6,71.1L1072.6,71.1z"/>
			</g>
		</g>
	</g>
</g>
</svg>
