<svg width="1442" height="900" viewBox="0 0 1442 900" fill="none" xmlns="http://www.w3.org/2000/svg">
<rect width="1440" height="900" transform="translate(1)" fill="#F5F5FB"/>
<path d="M1239 244C1243.02 247.333 1249.05 254.25 1259.1 253C1277.19 250.75 1303.99 215 1293.27 211C1281.21 206.5 1288.24 256 1310.35 256C1332.46 256 1349.55 201 1369.65 201C1389.75 201 1374.67 237 1394.77 238C1414.87 239 1410.85 212 1441 217" stroke="#355C99" stroke-width="2"/>
<path d="M1 249C5.0199 252.333 11.0498 259.25 21.0995 258C39.1891 255.75 65.9889 220 55.2687 216C43.209 211.5 50.2438 261 72.3532 261C94.4627 261 111.547 206 131.647 206C151.746 206 136.672 242 156.771 243C176.871 244 172.851 217 203 222" stroke="#355C99" stroke-width="2"/>
<path d="M647 708C651 711.333 657 718.25 667 717C685 714.75 711.667 679 701 675C689 670.5 696 720 718 720C740 720 757 665 777 665C797 665 782 701 802 702C822 703 818 676 848 681" stroke="#355C99" stroke-width="2"/>
<circle cx="251" cy="290" r="14.5" stroke="#D41D24" stroke-width="3"/>
<rect width="10.5" height="10.5" transform="matrix(-0.707107 0.707107 -0.714784 -0.699345 274.75 610.5)" fill="#D41D24"/>
<rect width="10.5" height="10.5" transform="matrix(-0.707107 0.707107 -0.714784 -0.699345 224.5 610.5)" fill="#D41D24"/>
<rect width="10.5" height="10.5" transform="matrix(-0.707107 0.707107 -0.714784 -0.699345 176.5 610.5)" fill="#D41D24"/>
<rect width="10.5" height="10.5" transform="matrix(-0.707107 0.707107 -0.714784 -0.699345 126.25 610.5)" fill="#D41D24"/>
<rect width="10.5" height="10.5" transform="matrix(-0.707107 0.707107 -0.714784 -0.699345 274.75 675)" fill="#D41D24"/>
<rect width="10.5" height="10.5" transform="matrix(-0.707107 0.707107 -0.714784 -0.699345 224.5 675)" fill="#D41D24"/>
<rect width="10.5" height="10.5" transform="matrix(-0.707107 0.707107 -0.714784 -0.699345 176.5 675)" fill="#D41D24"/>
<rect width="10.5" height="10.5" transform="matrix(-0.707107 0.707107 -0.714784 -0.699345 126.25 675)" fill="#D41D24"/>
<rect width="10.5" height="10.5" transform="matrix(-0.707107 0.707107 -0.714784 -0.699345 244 642)" fill="#D41D24"/>
<rect width="10.5" height="10.5" transform="matrix(-0.707107 0.707107 -0.714784 -0.699345 193.75 642)" fill="#D41D24"/>
<rect width="10.5" height="10.5" transform="matrix(-0.707107 0.707107 -0.714784 -0.699345 145.75 642)" fill="#D41D24"/>
<rect width="10.5" height="10.5" transform="matrix(-0.707107 0.707107 -0.714784 -0.699345 95.5 642)" fill="#D41D24"/>
<circle cx="1268" cy="774" r="27.5" stroke="#355C99" stroke-width="3"/>
<rect width="10.5" height="10.5" transform="matrix(0.707107 0.707107 -0.699345 0.714784 1061.34 402)" fill="#D41D24"/>
<rect width="10.5" height="10.5" transform="matrix(0.707107 0.707107 -0.699345 0.714784 1061.34 452.25)" fill="#D41D24"/>
<rect width="10.5" height="10.5" transform="matrix(0.707107 0.707107 -0.699345 0.714784 1061.34 500.25)" fill="#D41D24"/>
<rect width="10.5" height="10.5" transform="matrix(0.707107 0.707107 -0.699345 0.714784 1061.34 550.5)" fill="#D41D24"/>
<rect width="10.5" height="10.5" transform="matrix(0.707107 0.707107 -0.699345 0.714784 1125.84 402)" fill="#D41D24"/>
<rect width="10.5" height="10.5" transform="matrix(0.707107 0.707107 -0.699345 0.714784 1125.84 452.25)" fill="#D41D24"/>
<rect width="10.5" height="10.5" transform="matrix(0.707107 0.707107 -0.699345 0.714784 1125.84 500.25)" fill="#D41D24"/>
<rect width="10.5" height="10.5" transform="matrix(0.707107 0.707107 -0.699345 0.714784 1125.84 550.5)" fill="#D41D24"/>
<rect width="10.5" height="10.5" transform="matrix(0.707107 0.707107 -0.699345 0.714784 1092.84 432.75)" fill="#D41D24"/>
<rect width="10.5" height="10.5" transform="matrix(0.707107 0.707107 -0.699345 0.714784 1092.84 483)" fill="#D41D24"/>
<rect width="10.5" height="10.5" transform="matrix(0.707107 0.707107 -0.699345 0.714784 1092.84 531)" fill="#D41D24"/>
<rect width="10.5" height="10.5" transform="matrix(0.707107 0.707107 -0.699345 0.714784 1092.84 581.25)" fill="#D41D24"/>
</svg>
