<?xml version="1.0" encoding="utf-8"?>
<!-- Generator: Adobe Illustrator 27.5.0, SVG Export Plug-In . SVG Version: 6.00 Build 0)  -->
<svg version="1.1" id="Слой_1" xmlns="http://www.w3.org/2000/svg" xmlns:xlink="http://www.w3.org/1999/xlink" x="0px" y="0px"
	 viewBox="0 0 2892 994" style="enable-background:new 0 0 2892 994;" xml:space="preserve">
<style type="text/css">
	.st0{clip-path:url(#SVGID_00000113313864044648235470000011199337249868334004_);}
	.st1{fill-rule:evenodd;clip-rule:evenodd;fill:#93CE03;}
	.st2{fill-rule:evenodd;clip-rule:evenodd;fill:#83C805;}
	.st3{fill-rule:evenodd;clip-rule:evenodd;fill:#ABDB06;}
	.st4{fill-rule:evenodd;clip-rule:evenodd;fill:#A1D606;}
	.st5{fill:#575756;}
</style>
<g>
	<defs>
		<rect id="SVGID_1_" width="2892" height="994"/>
	</defs>
	<clipPath id="SVGID_00000037659949881575503160000008736940036475362710_">
		<use xlink:href="#SVGID_1_"  style="overflow:visible;"/>
	</clipPath>
	<g id="itp_new" style="clip-path:url(#SVGID_00000037659949881575503160000008736940036475362710_);">
		<g id="new_logo_itp" transform="translate(0 -1)">
			<path id="Path_484" class="st1" d="M1028.4,337.2L778.8,92.1C660.9-28.6,467.5-31,346.8,86.8c-1.8,1.7-3.6,3.5-5.3,5.3
				L91.9,337.2c-120.3,117-122.9,309.4-5.8,429.7c1.9,2,3.9,3.9,5.8,5.8l31.5,31c56,55.1,348.1,180.9,374.4,191.5V519.3
				c-0.6-14.8-10-27.9-24-33l-155.6-60.9c-31.6,26.4-78.6,22.3-105.1-9.3s-22.3-78.6,9.3-105.1s78.6-22.3,105.1,9.3
				c9.2,11,15.1,24.4,16.8,38.7l151.4,59.1c41.2,16.7,87.2,16.7,128.4,0l151.4-59.1c5.1-40.9,42.3-69.9,83.2-64.9
				c40.9,5.1,69.9,42.3,64.9,83.2s-42.3,69.9-83.2,64.9c-14.3-1.8-27.7-7.6-38.7-16.8l-155.6,60.9c-13.9,5.1-23.4,18.2-24,33v475.9
				c26.3-10.5,318.4-136.3,374.4-191.5l31.7-31c120.3-117.3,122.7-309.8,5.4-430.1c-1.8-1.8-3.6-3.6-5.4-5.4L1028.4,337.2z
				 M560.1,325.9c-49.8,0-90.1-40.4-90.1-90.1s40.4-90.1,90.1-90.1c49.8,0,90.1,40.4,90.1,90.1c0,23.9-9.5,46.8-26.4,63.7
				C606.9,316.4,584,325.9,560.1,325.9L560.1,325.9z"/>
			<path id="Path_485" class="st2" d="M1033.8,342.7L622.2,909.4v85.9c26.3-10.5,318.4-136.3,374.4-191.5l31.7-31
				C1148.5,655.5,1151,463,1033.8,342.7L1033.8,342.7z"/>
			<path id="Path_486" class="st3" d="M342.5,349.3l33.8-181.8l107.7,20c26.7-42,82.4-54.4,124.4-27.7c20.7,13.2,35.2,34.2,40,58.3
				l319.1,59.4L778.8,92.1C660.9-28.6,467.5-31,346.7,86.8c-1.8,1.7-3.6,3.5-5.3,5.3L91.9,337.2c-120.3,117-122.9,309.4-5.8,429.7
				c1.9,2,3.9,3.9,5.8,5.8l31.5,31c19.2,18.9,66.2,46.1,120.7,74.1l83.5-448.7l-9.4-3.7c-31.6,26.4-78.6,22.3-105.1-9.3
				s-22.3-78.6,9.3-105.1c31.6-26.4,78.6-22.3,105.1,9.3C334.6,328.8,339.7,338.7,342.5,349.3z"/>
			<path id="Path_487" class="st4" d="M724.5,48L375.4,166l-27.2-80.5C449.9-12.5,605.5-28,724.5,48L724.5,48z"/>
			<g>
				<path class="st5" d="M1308.1,199h56.5V514h-56.5V199z"/>
				<path class="st5" d="M1646.3,243.2h-92.9V514H1497V243.2h-92.4V199h241.7V243.2z"/>
				<path class="st5" d="M2005.9,297.6c0,59.3-46.2,98.6-115.8,98.6h-63V514h-56.5V199h119.8C1959.6,199,2005.9,238.3,2005.9,297.6z
					 M1947.4,297.6c0-32.7-21.7-54.4-54.4-54.4h-65.8v109.2h65.8C1925.7,352.4,1947.4,330.3,1947.4,297.6z"/>
				<path class="st5" d="M2203.8,441.6H2075l-25,72.4h-56.9L2109.7,199h63L2288.9,514h-60.1L2203.8,441.6z M2188.7,397.4L2140,256.3
					h-0.8l-48.7,141.1L2188.7,397.4z"/>
				<path class="st5" d="M2446.8,386h-68.3v128H2322V199h124.8c69.9,0,117,36,117,89.6c0,41.7-23.7,73.2-63,87.9l74.5,137.4h-63
					L2446.8,386z M2378.5,344.2h71.2c33.5,0,56-20.4,56-51.5c0-29.4-22.5-49.5-56-49.5h-71.2V344.2z"/>
				<path class="st5" d="M2620.2,199h56.5V514h-56.5V199z M2885.7,514H2819l-134.6-163.6L2805.5,199h63.4l-117.4,146.8L2885.7,514z"
					/>
				<path class="st5" d="M1637.3,677.7c-7.9,20.5-16.6,44.5-26.1,72h56.1c-8.7-24.6-16.5-48.7-23.4-72H1637.3z"/>
				<path class="st5" d="M2840.3,576.6H1353.4c-25,0-45.3,20.3-45.3,45.3c0,0,0,0,0,0v217.8c0,25,20.3,45.4,45.3,45.4c0,0,0,0,0,0
					h1486.9c25,0,45.4-20.3,45.4-45.4V621.9C2885.6,596.9,2865.3,576.6,2840.3,576.6z M1543.3,678.2h-56.8v140.8h-32.1V678.2h-56.8
					v-27.5h145.7L1543.3,678.2z M1692.6,819.1c-7.1-17.7-12.5-31.7-16.2-42h-73.7c-3.7,11.4-8.1,25.5-13,42h-33.3
					c17.2-54.9,37.5-111.1,60.9-168.4h50c20.6,64.9,40.8,121.1,60.6,168.4L1692.6,819.1z M1859.5,810.5c-11.7,8-30.1,12-55.2,12
					c-20.3,0-37.8-2.5-52.4-7.5l7-27.5c12.7,4,27.7,6,44.9,6.1c13.9,0,23.8-1.6,29.8-4.9c6-3.2,9.1-9,9.1-17.4
					c0-6.9-2.6-12.2-7.8-15.9c-5.2-3.7-15.4-6.2-30.6-7.5c-19.2-1.9-33.1-6.4-41.7-13.3c-8.6-6.9-12.9-18-12.9-33.1
					c0-19.3,5.9-33.3,17.8-41.9c11.8-8.6,29.9-12.9,54-12.9c19,0,36.2,2.5,51.5,7.5l-7,27.5c-11.3-4-26.1-6-44.5-6
					c-13.7,0-23.4,1.7-29.2,5c-5.8,3.3-8.7,9-8.7,17c0,6.8,2.5,11.7,7.4,14.7c4.9,3.1,14.8,5.3,29.6,6.8c19.8,2.1,34.2,7.1,43.1,15
					c8.9,7.9,13.4,19.7,13.4,35.5C1877,788.9,1871.1,802.5,1859.5,810.5L1859.5,810.5z M2059.2,819.1h-31.4v-74.7h-72v74.7h-31.9
					V650.7h31.9V715h72v-64.3h31.4L2059.2,819.1z M2148.1,819.1h-31.9V650.7h31.9V819.1z M2218.9,819.1
					c-15.6-25.8-29.9-46.5-42.9-62.1c-13-15.6-22.2-24.6-27.7-26.8c6-4.2,15-13.4,27.1-27.8c12.1-14.3,25-31.6,38.7-51.7h38.7
					c-14,19.8-26.8,36.6-38.4,50.4c-11.6,13.8-20,22.7-25.1,26.9c5.3,3.5,14.4,13.4,27.2,29.5c12.8,16.1,26.7,36.6,41.7,61.6
					L2218.9,819.1z M2412.9,678.2h-90.4v38.9h64.5v27.3h-64.5v47.1h90.4v27.5h-122.3V650.7h122.3L2412.9,678.2z M2599.2,819.1h-38.9
					c-23-42.7-47.8-85-74.2-126.9v126.9H2455V650.7h41.8c24.3,38.3,47.9,78.9,70.8,121.5V650.7h31.6L2599.2,819.1z M2781.7,678.2
					h-56.8v140.8h-32.1V678.2h-56.8v-27.5h145.7L2781.7,678.2z"/>
			</g>
		</g>
	</g>
</g>
</svg>
